<svg version="1.2" baseProfile="tiny-ps" xmlns="http://www.w3.org/2000/svg" viewBox="0 0 482 76" width="482" height="76">
	<title>template-svg</title>
	<style>
		tspan { white-space:pre }
	</style>
	<path id="farmzon " fill="#ffffff" aria-label="farmzon"  d="M5 26.38L5 37.78L5 37.78L5 66L19.04 66L19.04 37.78L58.14 37.78L58.14 23.75L5 23.75ZM64.04 13.97L64.04 -0.07L5 -0.07L5 13.97ZM57.46 62.09L55.3 66L72.9 66L73.65 64.64L87.96 38.79L79.13 22.95ZM129.62 62.09L101.63 11.54L95.89 1.16L95.23 -0.3L91.86 -0.3L91.19 1.16L85.44 11.54L84.74 12.81L84.71 12.86L93.54 28.71L93.8 29.18L100.25 40.84L113.42 64.64L114.17 66L131.78 66ZM212.6 66L226.63 66L226.63 43.65L212.6 29.65ZM269.03 -0.54L242.56 25.93L229.44 12.81L216.09 -0.54L212.6 -0.54L212.6 15.82L226.63 29.85L233.11 36.33L242.56 45.77L244.42 43.92L246.98 41.35L247.75 40.58L250.62 37.72L258.06 30.27L258.06 66L272.1 66L272.1 -0.54ZM306.29 51.96L288.92 51.96L288.92 51.97L288.91 51.97L288.13 53.05L282.71 60.48L282.2 61.17L282.2 66L341.71 66L341.71 51.97L306.28 51.97ZM296.06 42.18L313.43 42.18L334.8 12.9L341.2 4.13L344.26 -0.06L282.2 -0.06L282.2 13.97L316.64 13.97ZM381.72 0.16C363.57 0.16 348.8 14.93 348.8 33.08C348.8 51.23 363.57 66 381.72 66C399.87 66 414.64 51.23 414.64 33.08C414.64 14.93 399.87 0.16 381.72 0.16ZM400.9 33.08C400.9 43.66 392.29 52.26 381.72 52.26C371.14 52.26 362.54 43.66 362.54 33.08C362.54 22.51 371.14 13.9 381.72 13.9C392.29 13.9 400.9 22.51 400.9 33.08ZM424.7 65.91L438.73 65.91L438.73 43.69L424.7 29.66ZM464.2 -0.18L464.2 35.48L428.18 -0.54L424.7 -0.54L424.7 1.16L424.7 7.46L424.7 15.83L438.73 29.86L448.34 39.46L464.97 56.09L474.88 66L478.23 66L478.23 -0.18Z" />
	<path id="farmzon " fill="#788402" aria-label="farmzon"  d="M200.16 62L181.24 30.99C181.36 30.9 181.47 30.82 181.58 30.73L181.65 30.68C181.73 30.62 181.81 30.56 181.88 30.5C182.03 30.39 182.17 30.27 182.3 30.16C182.49 30 182.68 29.85 182.86 29.7C182.88 29.68 182.91 29.66 182.93 29.64C183.07 29.51 183.22 29.38 183.36 29.26C183.77 28.89 184.19 28.5 184.63 28.07C189.18 23.59 192.31 17.93 193.68 11.73C194.2 9.39 194.47 6.97 194.47 4.54C194.47 3.77 194.44 2.99 194.39 2.21L194.22 -0.24L138.7 -0.24L138.7 13.79L168.76 13.79L168.76 13.79L178.04 13.79C177.16 15.36 176.06 16.81 174.77 18.09C173.07 19.76 171.12 21.08 168.96 22.02C168.9 22.05 168.83 22.08 168.76 22.1C166.44 23.08 163.97 23.57 161.4 23.57L138.7 23.57L138.7 66L152.73 66L152.73 37.6L161.4 37.6C161.62 37.6 161.84 37.6 162.06 37.6L162.08 37.6L162.1 37.59L162.27 37.59L162.42 37.58L162.44 37.58C162.62 37.58 162.79 37.57 162.96 37.56C163.03 37.56 163.1 37.56 163.15 37.56C163.37 37.54 163.58 37.53 163.8 37.52L163.94 37.52L164.05 37.5C164.27 37.48 164.5 37.46 164.75 37.43C164.97 37.41 165.19 37.39 165.42 37.36C165.51 37.35 165.61 37.34 165.7 37.32C165.92 37.3 166.13 37.27 166.34 37.23L166.36 37.23C166.44 37.22 166.53 37.21 166.6 37.19C166.79 37.17 166.95 37.14 167.1 37.11C167.52 37.04 167.96 36.96 168.39 36.86L185.39 64.74L186.16 66L202.59 66Z" />
</svg>